<svg xmlns="http://www.w3.org/2000/svg" viewBox="0 0 512 512" width="100" height="100">
  <rect width="512" height="512" rx="140" fill="#111111" />
  
  <g transform="translate(256,256) scale(1.1)">
    <rect x="-110" y="-110" width="220" height="220" rx="6" fill="none" stroke="#c8a96e" stroke-width="3" stroke-opacity="0.2" />
    <rect x="-110" y="-110" width="220" height="220" rx="6" fill="none" stroke="#c8a96e" stroke-width="3" stroke-opacity="0.2" transform="rotate(45)" />
  </g>

  <g fill="#c8a96e">
    <path d="M246,180 C210,180 170,200 140,220 L140,320 C170,300 210,280 246,280 Z" />
    
    <path d="M266,180 C302,180 342,200 372,220 L372,320 C342,300 302,280 266,280 Z" fill="#e4c88a" />
    
    <path d="M210,325 L256,350 L302,325 L256,310 Z" fill="#a98743" />
  </g>

  <circle cx="256" cy="145" r="10" fill="#e4c88a" />
</svg>
